<svg width="78" height="119" viewBox="0 0 78 119" fill="none" xmlns="http://www.w3.org/2000/svg">
<path d="M0 34.7488C0 15.5576 15.5576 0 34.7488 0V84.251C34.7488 103.442 19.1912 119 0 119V34.7488Z" fill="#4A3AFF"/>
<path d="M39.7902 18.8822C39.7902 8.45386 48.244 0 58.6724 0C69.1007 0 77.5546 8.45385 77.5546 18.8822V36.9932C77.5546 47.4215 69.1007 55.8754 58.6724 55.8754C48.244 55.8754 39.7902 47.4216 39.7902 36.9932V18.8822Z" fill="#4CBFFF"/>
<path d="M39.7904 82.0066C39.7904 71.5783 48.2442 63.1244 58.6726 63.1244C69.1009 63.1244 77.5548 71.5783 77.5548 82.0066V100.118C77.5548 110.546 69.1009 119 58.6726 119C48.2442 119 39.7904 110.546 39.7904 100.118V82.0066Z" fill="#A32DFF"/>
</svg>
