<svg xmlns="http://www.w3.org/2000/svg" width="598" height="596" viewBox="0 0 598 596" version="1.1"><path d="M 341.500 60 C 344.209 62.750, 346.650 65, 346.925 65 C 347.200 65, 345.209 62.750, 342.500 60 C 339.791 57.250, 337.350 55, 337.075 55 C 336.800 55, 338.791 57.250, 341.500 60 M 362.328 217.500 C 362.333 221.350, 362.513 222.802, 362.730 220.728 C 362.946 218.653, 362.943 215.503, 362.722 213.728 C 362.501 211.952, 362.324 213.650, 362.328 217.500 M 512.500 236.657 C 514.150 237.525, 517.676 239.552, 520.336 241.161 C 522.996 242.771, 524.889 243.629, 524.542 243.068 C 523.789 241.849, 511.697 234.983, 510.404 235.040 C 509.907 235.062, 510.850 235.790, 512.500 236.657 M 529.500 247.540 C 531.700 249.636, 534.773 252.735, 536.329 254.426 L 539.158 257.500 537.170 254.500 C 535.129 251.419, 531.036 247.426, 527.500 245.065 C 526.400 244.330, 527.300 245.444, 529.500 247.540 M 50.537 253.171 C 47.980 256.014, 45.438 259.277, 44.889 260.421 C 44.339 261.564, 44.923 261.150, 46.185 259.500 C 47.448 257.850, 50.230 254.588, 52.368 252.250 C 54.506 249.912, 56.014 248, 55.720 248 C 55.426 248, 53.093 250.327, 50.537 253.171 M 474.500 293.925 C 471.750 294.944, 467.997 296.434, 466.160 297.237 C 463.052 298.594, 462.392 298.517, 456.660 296.128 C 448.296 292.642, 438.929 292.646, 430.412 296.139 L 424.325 298.636 417.912 296.219 C 404.005 290.976, 391.347 293.681, 381.108 304.082 C 373.430 311.882, 369.961 320.192, 364.522 343.809 C 362.436 352.867, 357.137 366.285, 328.707 434.500 C 295.141 515.037, 279.344 553.237, 278.564 555.750 C 278.130 557.147, 277.038 558.025, 275.683 558.067 C 271.069 558.208, 282.743 560.970, 288.015 560.985 L 293.531 561 295.273 556.093 C 296.232 553.394, 304.935 532.132, 314.615 508.843 C 324.294 485.554, 333.697 462.675, 335.511 458 C 339.991 446.452, 370.757 374.448, 375.462 364.500 L 379.246 356.500 380.988 363 C 383.549 372.554, 427.578 546.588, 428.996 552.762 C 429.661 555.656, 429.974 558.624, 429.693 559.359 C 429.312 560.351, 430.376 560.705, 433.840 560.737 C 456.956 560.949, 470.485 560.849, 470.871 560.462 C 471.125 560.208, 464.561 560, 456.284 560 L 441.235 560 437.474 544.750 C 435.406 536.362, 433.332 529.009, 432.866 528.408 C 432.399 527.807, 432.303 527.031, 432.651 526.682 C 433 526.334, 432.775 525.434, 432.151 524.682 C 431.528 523.931, 431.236 523.098, 431.503 522.831 C 431.971 522.362, 425.613 495.043, 424.327 492 C 423.979 491.175, 423.606 490.050, 423.499 489.500 C 423.392 488.950, 423.206 488.275, 423.085 488 C 422.964 487.725, 422.677 486.150, 422.447 484.500 C 422.217 482.850, 418.886 469.125, 415.045 454 C 411.203 438.875, 407.853 425.375, 407.600 424 C 406.740 419.325, 404.893 411.535, 395.912 374.703 C 390.977 354.465, 387.205 337.478, 387.529 336.953 C 387.853 336.428, 393.934 336, 401.059 336 C 412.505 336, 414.223 336.223, 415.928 337.928 C 418.608 340.608, 419.556 348.247, 418.089 355.348 C 417.423 358.573, 417.106 361.439, 417.385 361.718 C 417.664 361.997, 418.794 360.742, 419.897 358.929 C 423.729 352.629, 423.510 340.754, 419.416 332.838 C 414.010 322.383, 401.275 315.044, 393.601 317.962 C 390.064 319.307, 389.357 318.756, 391.216 316.101 C 393.863 312.323, 398.132 309.739, 402.553 309.241 C 411.439 308.240, 423.941 317.549, 429.250 329.120 C 430.487 331.817, 432.368 334.300, 433.431 334.637 C 434.493 334.974, 439.668 335.531, 444.931 335.875 L 454.500 336.500 456.313 340 C 457.719 342.715, 458.014 344.958, 457.627 350 C 457.353 353.575, 456.822 357.512, 456.448 358.750 C 455.439 362.083, 457.285 361.477, 459.499 357.750 C 460.915 355.366, 461.431 352.615, 461.437 347.423 C 461.443 341.443, 460.938 339.316, 458.180 333.715 C 452.590 322.359, 442.058 315.504, 433.650 317.748 C 431.377 318.355, 429.319 318.652, 429.076 318.409 C 428.187 317.521, 432.658 312.652, 436.017 310.851 C 440.771 308.302, 445.670 308.533, 451.818 311.597 C 457.896 314.625, 462.796 319.921, 467.924 329 L 471.594 335.500 482.296 335.784 C 492.610 336.057, 493.061 336.163, 494.722 338.699 C 496.575 341.527, 497.118 351.541, 495.769 358 L 495.037 361.500 497.006 359.155 C 501.476 353.830, 501.854 344.110, 497.938 335.170 C 492.391 322.505, 481.032 315.449, 470.750 318.281 C 466.794 319.370, 467.154 316.950, 471.518 313.118 C 475.612 309.524, 478.749 308.535, 483.576 309.319 C 492.988 310.846, 501.511 318.199, 507.152 329.658 L 510.275 336 517.599 336 L 524.923 336 526.015 340.250 C 527.574 346.312, 527.832 346.817, 527.921 343.973 C 528.065 339.352, 530.548 337.133, 535.947 336.802 L 540.853 336.500 534.413 326.702 C 523.636 310.305, 508.522 297.014, 496.643 293.486 C 489.899 291.484, 480.589 291.668, 474.500 293.925 M 552.123 313.500 C 552.040 314.600, 551.741 316.625, 551.458 318 L 550.944 320.500 552.015 318.047 C 552.604 316.698, 552.903 314.673, 552.679 313.547 C 552.283 311.553, 552.268 311.552, 552.123 313.500 M 547.735 327.291 C 546.214 330.598, 545.155 333.489, 545.382 333.715 C 545.955 334.288, 551.195 323.051, 550.811 322.073 C 550.640 321.637, 549.256 323.985, 547.735 327.291 M 528.122 348 C 528.103 348.825, 530.513 359.175, 533.478 371 C 536.443 382.825, 538.898 391.681, 538.934 390.679 C 538.992 389.091, 529.641 350.159, 528.563 347.500 C 528.340 346.950, 528.142 347.175, 528.122 348 M 407.026 360.500 C 407.001 364.497, 410.349 369.798, 413.376 370.558 C 414.717 370.895, 416.868 370.590, 418.157 369.880 C 420.474 368.605, 420.461 368.584, 416.966 367.988 C 412.074 367.153, 411.065 366.356, 408.918 361.627 C 407.081 357.582, 407.044 357.560, 407.026 360.500 M 486 360.099 C 486 363.449, 489.115 369.095, 491.585 370.221 C 494.079 371.357, 499 370.534, 499 368.981 C 499 368.441, 497.840 368, 496.423 368 C 493.300 368, 488 363.015, 488 360.077 C 488 358.935, 487.550 358, 487 358 C 486.450 358, 486 358.944, 486 360.099 M 446.585 359.862 C 445.739 361.231, 448.474 367.214, 450.982 369.484 C 452.034 370.435, 454.007 371.011, 455.584 370.825 C 459.053 370.417, 460.098 368, 456.806 368 C 453.566 368, 450.046 365.338, 448.535 361.745 C 447.782 359.954, 446.997 359.196, 446.585 359.862 M 120.750 368.706 C 121.987 368.944, 124.013 368.944, 125.250 368.706 C 126.487 368.467, 125.475 368.272, 123 368.272 C 120.525 368.272, 119.513 368.467, 120.750 368.706 M 449.250 397.654 C 446.812 398.009, 446 398.631, 446 400.147 C 446 403.662, 454.217 460.403, 455.043 462.595 C 455.771 464.526, 456.840 464.738, 468.666 465.289 C 483.360 465.975, 488.915 467.524, 494.822 472.580 C 503.200 479.751, 507.113 494.277, 502.403 500.720 C 497.418 507.539, 486.084 509.220, 473 505.082 C 462.320 501.704, 462.626 501.474, 463.447 512.250 C 463.834 517.337, 464.759 522.445, 465.501 523.601 C 467.225 526.284, 478.140 529.828, 487.855 530.859 C 513.612 533.594, 529.163 520.987, 529.190 497.350 C 529.202 487.577, 527.246 480.253, 521.845 469.841 C 513.076 452.937, 496.600 443, 477.342 443 C 472.707 443, 471.824 442.687, 471.004 440.750 C 469.806 437.921, 467.940 423.907, 468.615 422.814 C 468.892 422.366, 476.404 421.947, 485.309 421.882 C 504.420 421.742, 507.611 421.245, 507.232 418.466 C 506.522 413.258, 506.017 411.090, 504.326 406.002 C 501.663 397.985, 500.988 397.791, 474.590 397.459 C 462.440 397.306, 451.038 397.394, 449.250 397.654 M 548 429.870 C 548 431.959, 552.244 448.090, 552.679 447.654 C 552.908 447.426, 552.120 443.248, 550.929 438.369 C 548.834 429.784, 548 427.365, 548 429.870 M 257 550.494 C 257 551.167, 267.122 556.211, 267.571 555.762 C 267.776 555.557, 265.482 554.182, 262.472 552.705 C 259.462 551.229, 257 550.234, 257 550.494" stroke="none" fill="#faf8f9" fill-rule="evenodd"/><path d="M 275.344 42.021 C 253.309 47.718, 234.588 65.861, 227.383 88.500 C 224.873 96.388, 224.832 97.047, 224.415 135.500 C 223.681 203.299, 223.159 210.511, 218.396 218.723 C 215.408 223.876, 209.706 227.387, 200.986 229.442 C 195.646 230.700, 186.016 230.974, 146.500 230.992 C 90.356 231.018, 84.066 231.583, 72.231 237.670 C 53.145 247.486, 40.358 263.550, 35.023 284.410 C 27.677 313.135, 41.236 344.180, 68.056 360.043 C 79.036 366.537, 82.107 367.130, 109.500 368.037 C 123.250 368.492, 146.200 368.898, 160.500 368.940 C 192.182 369.033, 202.481 370.038, 210 373.770 C 222.687 380.067, 223.651 385.588, 224.879 459 C 225.626 503.613, 225.804 506.895, 227.811 513 C 230.950 522.552, 236.532 531.306, 245.039 540.020 C 251.406 546.542, 254.204 548.540, 263.032 552.872 C 274.707 558.599, 277.518 559.120, 278.564 555.750 C 279.344 553.237, 295.141 515.037, 328.707 434.500 C 357.137 366.285, 362.436 352.867, 364.522 343.809 C 369.961 320.192, 373.430 311.882, 381.108 304.082 C 391.347 293.681, 404.005 290.976, 417.912 296.219 L 424.325 298.636 430.412 296.139 C 438.932 292.645, 448.295 292.642, 456.667 296.131 L 462.835 298.701 469.667 295.731 C 478.337 291.963, 488.280 291.067, 496.126 293.348 C 508.509 296.948, 523.501 310.064, 534.606 327.014 C 538.240 332.559, 541.727 336.926, 542.356 336.718 C 544.309 336.073, 549.765 323.870, 551.620 316 C 559.836 281.127, 539.419 245.323, 504.674 233.673 C 498.747 231.686, 495.812 231.581, 431.332 231.051 C 394.390 230.748, 363.790 230.125, 363.332 229.668 C 362.874 229.210, 362.242 198.835, 361.927 162.168 C 361.321 91.587, 361.484 93.932, 356.301 81.557 C 348.213 62.246, 328.548 45.612, 308.926 41.484 C 299.363 39.473, 284.269 39.714, 275.344 42.021 M 398.423 309.967 C 395.944 310.970, 390 316.740, 390 318.144 C 390 318.747, 390.881 318.815, 392.250 318.317 C 398.948 315.884, 408.068 319.013, 414.262 325.868 C 420.797 333.102, 423.627 341.563, 422.523 350.566 C 421.938 355.341, 418.490 362.824, 417.385 361.718 C 417.106 361.439, 417.423 358.573, 418.089 355.348 C 419.556 348.247, 418.608 340.608, 415.928 337.928 C 414.223 336.223, 412.505 336, 401.059 336 C 393.941 336, 387.854 336.428, 387.530 336.951 C 386.958 337.876, 394.357 369.089, 417.526 463.500 C 423.735 488.800, 431.598 520.862, 435 534.750 L 441.185 560 508.401 560 C 560.604 560, 575.996 559.721, 577.312 558.750 C 579.175 557.375, 576.540 545.721, 551.144 443 C 545.093 418.525, 536.937 385.225, 533.019 369 C 529.102 352.775, 525.665 338.712, 525.381 337.750 C 524.951 336.290, 523.655 336, 517.570 336 L 510.275 336 507.152 329.658 C 501.511 318.199, 492.988 310.846, 483.576 309.319 C 478.749 308.535, 475.612 309.524, 471.518 313.118 C 467.154 316.950, 466.794 319.370, 470.750 318.281 C 481.032 315.449, 492.391 322.505, 497.938 335.170 C 501.854 344.110, 501.476 353.830, 497.006 359.155 L 495.037 361.500 495.769 358 C 497.118 351.541, 496.575 341.527, 494.722 338.699 C 493.061 336.163, 492.610 336.057, 482.296 335.784 L 471.594 335.500 467.924 329 C 462.796 319.921, 457.896 314.625, 451.818 311.597 C 445.670 308.533, 440.771 308.302, 436.017 310.851 C 432.658 312.652, 428.187 317.521, 429.076 318.409 C 429.319 318.652, 431.377 318.355, 433.650 317.748 C 442.058 315.504, 452.590 322.359, 458.180 333.715 C 460.938 339.316, 461.443 341.443, 461.437 347.423 C 461.431 352.615, 460.915 355.366, 459.499 357.750 C 457.285 361.477, 455.439 362.083, 456.448 358.750 C 456.822 357.512, 457.353 353.575, 457.627 350 C 458.014 344.958, 457.719 342.715, 456.313 340 L 454.500 336.500 444.931 335.875 C 439.668 335.531, 434.493 334.974, 433.431 334.637 C 432.368 334.300, 430.487 331.817, 429.250 329.120 C 423.017 315.534, 407.891 306.136, 398.423 309.967 M 375.015 365.500 C 371.563 372.841, 345.008 434.734, 337.902 452 C 336.883 454.475, 327.889 476.300, 317.916 500.500 C 294.730 556.762, 293.797 559.130, 294.543 559.877 C 294.886 560.220, 325.289 560.622, 362.106 560.771 C 437.550 561.076, 431.084 561.850, 428.996 552.762 C 427.579 546.593, 383.551 372.565, 380.988 363 L 379.246 356.500 375.015 365.500 M 407.026 360.500 C 407.001 364.497, 410.349 369.798, 413.376 370.558 C 414.717 370.895, 416.868 370.590, 418.157 369.880 C 420.474 368.605, 420.461 368.584, 416.966 367.988 C 412.074 367.153, 411.065 366.356, 408.918 361.627 C 407.081 357.582, 407.044 357.560, 407.026 360.500 M 486 360.099 C 486 363.449, 489.115 369.095, 491.585 370.221 C 494.079 371.357, 499 370.534, 499 368.981 C 499 368.441, 497.840 368, 496.423 368 C 493.300 368, 488 363.015, 488 360.077 C 488 358.935, 487.550 358, 487 358 C 486.450 358, 486 358.944, 486 360.099 M 446.585 359.862 C 445.739 361.231, 448.474 367.214, 450.982 369.484 C 452.034 370.435, 454.007 371.011, 455.584 370.825 C 459.053 370.417, 460.098 368, 456.806 368 C 453.566 368, 450.046 365.338, 448.535 361.745 C 447.782 359.954, 446.997 359.196, 446.585 359.862 M 449.250 397.654 C 446.812 398.009, 446 398.631, 446 400.147 C 446 403.662, 454.217 460.403, 455.043 462.595 C 455.771 464.526, 456.840 464.738, 468.666 465.289 C 483.360 465.975, 488.915 467.524, 494.822 472.580 C 503.200 479.751, 507.113 494.277, 502.403 500.720 C 497.418 507.539, 486.084 509.220, 473 505.082 C 462.320 501.704, 462.626 501.474, 463.447 512.250 C 463.834 517.337, 464.759 522.445, 465.501 523.601 C 467.225 526.284, 478.140 529.828, 487.855 530.859 C 513.612 533.594, 529.163 520.987, 529.190 497.350 C 529.202 487.577, 527.246 480.253, 521.845 469.841 C 513.076 452.937, 496.600 443, 477.342 443 C 472.707 443, 471.824 442.687, 471.004 440.750 C 469.806 437.921, 467.940 423.907, 468.615 422.814 C 468.892 422.366, 476.629 421.955, 485.809 421.900 C 494.989 421.845, 503.625 421.481, 505 421.090 C 508.046 420.223, 507.982 417.397, 504.683 407.230 C 501.625 397.802, 501.616 397.799, 474.590 397.459 C 462.440 397.306, 451.038 397.394, 449.250 397.654" stroke="none" fill="#a4141c" fill-rule="evenodd"/></svg>